# xmcd
#
# Track frame offsets:
#	150
#	13766
#	24491
#	35444
#	47133
#	62605
#	76712
#	92027
#	109199
#	123877
#	133420
#	147657
#	165083
#	175700
#
# Disc length: 2568 seconds
#
# Revision: 1
# Processed by: cddbd v1.4PL0 Copyright (c) Steve Scherf et al.
# Submitted via: audiograbber 1.80
#
DISCID=b10a060e
DTITLE=Imants Skrastiòð - Sapòu pîpe
DYEAR=1900
DGENRE=
TTITLE0=Vçju pavalstnieks
TTITLE1=Cauri gadsimtiem
TTITLE2=Par citu
TTITLE3=Vasaras vidû
TTITLE4=Es mîlu Tevi
TTITLE5=Ðûpïa dziesma mâtei
TTITLE6=Odu romance
TTITLE7=Par labu dzîvoðanu
TTITLE8=Pirmâ mîla
TTITLE9=Adiet, meitas
TTITLE10=Un kamçr mazs
TTITLE11=Kad nekas nav palicis tevî
TTITLE12=Reiz dejojâm valsi
TTITLE13=Kamolâ tinçja
EXTD=
EXTT0=
EXTT1=
EXTT2=
EXTT3=
EXTT4=
EXTT5=
EXTT6=
EXTT7=
EXTT8=
EXTT9=
EXTT10=
EXTT11=
EXTT12=
EXTT13=
PLAYORDER=
